<svg width="1363" height="163" viewBox="0 0 1363 163" fill="none" xmlns="http://www.w3.org/2000/svg">
<path d="M0 15C0 6.71573 6.71573 0 15 0H37V163H15C6.71573 163 0 156.284 0 148V15Z" fill="#424242"/>
<rect width="1097" height="163" transform="translate(37)" fill="#F0F0F0"/>
<path d="M101.906 53.9219L94.3945 51.2383V48.0859L104.602 52.375V54.6367L101.906 53.9219ZM94.3945 56.1719L101.918 53.4297L104.602 52.7852V55.0352L94.3945 59.3242V56.1719ZM125.52 54.918H121.172V52.1758H125.52C126.191 52.1758 126.738 52.0664 127.16 51.8477C127.582 51.6211 127.891 51.3086 128.086 50.9102C128.281 50.5117 128.379 50.0625 128.379 49.5625C128.379 49.0547 128.281 48.582 128.086 48.1445C127.891 47.707 127.582 47.3555 127.16 47.0898C126.738 46.8242 126.191 46.6914 125.52 46.6914H122.391V61H118.875V43.9375H125.52C126.855 43.9375 128 44.1797 128.953 44.6641C129.914 45.1406 130.648 45.8008 131.156 46.6445C131.664 47.4883 131.918 48.4531 131.918 49.5391C131.918 50.6406 131.664 51.5938 131.156 52.3984C130.648 53.2031 129.914 53.8242 128.953 54.2617C128 54.6992 126.855 54.918 125.52 54.918ZM139.805 61.2344C138.82 61.2344 137.938 61.0781 137.156 60.7656C136.375 60.4453 135.711 60.0039 135.164 59.4414C134.625 58.8789 134.211 58.2266 133.922 57.4844C133.633 56.7344 133.488 55.9375 133.488 55.0938V54.625C133.488 53.6641 133.625 52.7852 133.898 51.9883C134.172 51.1914 134.562 50.5 135.07 49.9141C135.586 49.3281 136.211 48.8789 136.945 48.5664C137.68 48.2461 138.508 48.0859 139.43 48.0859C140.328 48.0859 141.125 48.2344 141.82 48.5312C142.516 48.8281 143.098 49.25 143.566 49.7969C144.043 50.3438 144.402 51 144.645 51.7656C144.887 52.5234 145.008 53.3672 145.008 54.2969V55.7031H134.93V53.4531H141.691V53.1953C141.691 52.7266 141.605 52.3086 141.434 51.9414C141.27 51.5664 141.02 51.2695 140.684 51.0508C140.348 50.832 139.918 50.7227 139.395 50.7227C138.949 50.7227 138.566 50.8203 138.246 51.0156C137.926 51.2109 137.664 51.4844 137.461 51.8359C137.266 52.1875 137.117 52.6016 137.016 53.0781C136.922 53.5469 136.875 54.0625 136.875 54.625V55.0938C136.875 55.6016 136.945 56.0703 137.086 56.5C137.234 56.9297 137.441 57.3008 137.707 57.6133C137.98 57.9258 138.309 58.168 138.691 58.3398C139.082 58.5117 139.523 58.5977 140.016 58.5977C140.625 58.5977 141.191 58.4805 141.715 58.2461C142.246 58.0039 142.703 57.6406 143.086 57.1562L144.727 58.9375C144.461 59.3203 144.098 59.6875 143.637 60.0391C143.184 60.3906 142.637 60.6797 141.996 60.9062C141.355 61.125 140.625 61.2344 139.805 61.2344ZM153.773 58.1406V52.4922C153.773 52.0859 153.707 51.7383 153.574 51.4492C153.441 51.1523 153.234 50.9219 152.953 50.7578C152.68 50.5938 152.324 50.5117 151.887 50.5117C151.512 50.5117 151.188 50.5781 150.914 50.7109C150.641 50.8359 150.43 51.0195 150.281 51.2617C150.133 51.4961 150.059 51.7734 150.059 52.0938H146.684C146.684 51.5547 146.809 51.043 147.059 50.5586C147.309 50.0742 147.672 49.6484 148.148 49.2812C148.625 48.9062 149.191 48.6133 149.848 48.4023C150.512 48.1914 151.254 48.0859 152.074 48.0859C153.059 48.0859 153.934 48.25 154.699 48.5781C155.465 48.9062 156.066 49.3984 156.504 50.0547C156.949 50.7109 157.172 51.5312 157.172 52.5156V57.9414C157.172 58.6367 157.215 59.207 157.301 59.6523C157.387 60.0898 157.512 60.4727 157.676 60.8008V61H154.266C154.102 60.6562 153.977 60.2266 153.891 59.7109C153.812 59.1875 153.773 58.6641 153.773 58.1406ZM154.219 53.2773L154.242 55.1875H152.355C151.91 55.1875 151.523 55.2383 151.195 55.3398C150.867 55.4414 150.598 55.5859 150.387 55.7734C150.176 55.9531 150.02 56.1641 149.918 56.4062C149.824 56.6484 149.777 56.9141 149.777 57.2031C149.777 57.4922 149.844 57.7539 149.977 57.9883C150.109 58.2148 150.301 58.3945 150.551 58.5273C150.801 58.6523 151.094 58.7148 151.43 58.7148C151.938 58.7148 152.379 58.6133 152.754 58.4102C153.129 58.207 153.418 57.957 153.621 57.6602C153.832 57.3633 153.941 57.082 153.949 56.8164L154.84 58.2461C154.715 58.5664 154.543 58.8984 154.324 59.2422C154.113 59.5859 153.844 59.9102 153.516 60.2148C153.188 60.5117 152.793 60.7578 152.332 60.9531C151.871 61.1406 151.324 61.2344 150.691 61.2344C149.887 61.2344 149.156 61.0742 148.5 60.7539C147.852 60.4258 147.336 59.9766 146.953 59.4062C146.578 58.8281 146.391 58.1719 146.391 57.4375C146.391 56.7734 146.516 56.1836 146.766 55.668C147.016 55.1523 147.383 54.7188 147.867 54.3672C148.359 54.0078 148.973 53.7383 149.707 53.5586C150.441 53.3711 151.293 53.2773 152.262 53.2773H154.219ZM165.012 58.5977C165.426 58.5977 165.793 58.5195 166.113 58.3633C166.434 58.1992 166.684 57.9727 166.863 57.6836C167.051 57.3867 167.148 57.0391 167.156 56.6406H170.332C170.324 57.5312 170.086 58.3242 169.617 59.0195C169.148 59.707 168.52 60.25 167.73 60.6484C166.941 61.0391 166.059 61.2344 165.082 61.2344C164.098 61.2344 163.238 61.0703 162.504 60.7422C161.777 60.4141 161.172 59.9609 160.688 59.3828C160.203 58.7969 159.84 58.1172 159.598 57.3438C159.355 56.5625 159.234 55.7266 159.234 54.8359V54.4961C159.234 53.5977 159.355 52.7617 159.598 51.9883C159.84 51.207 160.203 50.5273 160.688 49.9492C161.172 49.3633 161.777 48.9062 162.504 48.5781C163.23 48.25 164.082 48.0859 165.059 48.0859C166.098 48.0859 167.008 48.2852 167.789 48.6836C168.578 49.082 169.195 49.6523 169.641 50.3945C170.094 51.1289 170.324 52 170.332 53.0078H167.156C167.148 52.5859 167.059 52.2031 166.887 51.8594C166.723 51.5156 166.48 51.2422 166.16 51.0391C165.848 50.8281 165.461 50.7227 165 50.7227C164.508 50.7227 164.105 50.8281 163.793 51.0391C163.48 51.2422 163.238 51.5234 163.066 51.8828C162.895 52.2344 162.773 52.6367 162.703 53.0898C162.641 53.5352 162.609 54.0039 162.609 54.4961V54.8359C162.609 55.3281 162.641 55.8008 162.703 56.2539C162.766 56.707 162.883 57.1094 163.055 57.4609C163.234 57.8125 163.48 58.0898 163.793 58.293C164.105 58.4961 164.512 58.5977 165.012 58.5977ZM178.125 61.2344C177.141 61.2344 176.258 61.0781 175.477 60.7656C174.695 60.4453 174.031 60.0039 173.484 59.4414C172.945 58.8789 172.531 58.2266 172.242 57.4844C171.953 56.7344 171.809 55.9375 171.809 55.0938V54.625C171.809 53.6641 171.945 52.7852 172.219 51.9883C172.492 51.1914 172.883 50.5 173.391 49.9141C173.906 49.3281 174.531 48.8789 175.266 48.5664C176 48.2461 176.828 48.0859 177.75 48.0859C178.648 48.0859 179.445 48.2344 180.141 48.5312C180.836 48.8281 181.418 49.25 181.887 49.7969C182.363 50.3438 182.723 51 182.965 51.7656C183.207 52.5234 183.328 53.3672 183.328 54.2969V55.7031H173.25V53.4531H180.012V53.1953C180.012 52.7266 179.926 52.3086 179.754 51.9414C179.59 51.5664 179.34 51.2695 179.004 51.0508C178.668 50.832 178.238 50.7227 177.715 50.7227C177.27 50.7227 176.887 50.8203 176.566 51.0156C176.246 51.2109 175.984 51.4844 175.781 51.8359C175.586 52.1875 175.438 52.6016 175.336 53.0781C175.242 53.5469 175.195 54.0625 175.195 54.625V55.0938C175.195 55.6016 175.266 56.0703 175.406 56.5C175.555 56.9297 175.762 57.3008 176.027 57.6133C176.301 57.9258 176.629 58.168 177.012 58.3398C177.402 58.5117 177.844 58.5977 178.336 58.5977C178.945 58.5977 179.512 58.4805 180.035 58.2461C180.566 58.0039 181.023 57.6406 181.406 57.1562L183.047 58.9375C182.781 59.3203 182.418 59.6875 181.957 60.0391C181.504 60.3906 180.957 60.6797 180.316 60.9062C179.676 61.125 178.945 61.2344 178.125 61.2344ZM198.082 54.918H193.734V52.1758H198.082C198.754 52.1758 199.301 52.0664 199.723 51.8477C200.145 51.6211 200.453 51.3086 200.648 50.9102C200.844 50.5117 200.941 50.0625 200.941 49.5625C200.941 49.0547 200.844 48.582 200.648 48.1445C200.453 47.707 200.145 47.3555 199.723 47.0898C199.301 46.8242 198.754 46.6914 198.082 46.6914H194.953V61H191.438V43.9375H198.082C199.418 43.9375 200.562 44.1797 201.516 44.6641C202.477 45.1406 203.211 45.8008 203.719 46.6445C204.227 47.4883 204.48 48.4531 204.48 49.5391C204.48 50.6406 204.227 51.5938 203.719 52.3984C203.211 53.2031 202.477 53.8242 201.516 54.2617C200.562 54.6992 199.418 54.918 198.082 54.918ZM214.195 57.9648V48.3203H217.57V61H214.395L214.195 57.9648ZM214.57 55.3633L215.566 55.3398C215.566 56.1836 215.469 56.9688 215.273 57.6953C215.078 58.4141 214.785 59.0391 214.395 59.5703C214.004 60.0938 213.512 60.5039 212.918 60.8008C212.324 61.0898 211.625 61.2344 210.82 61.2344C210.203 61.2344 209.633 61.1484 209.109 60.9766C208.594 60.7969 208.148 60.5195 207.773 60.1445C207.406 59.7617 207.117 59.2734 206.906 58.6797C206.703 58.0781 206.602 57.3555 206.602 56.5117V48.3203H209.977V56.5352C209.977 56.9102 210.02 57.2266 210.105 57.4844C210.199 57.7422 210.328 57.9531 210.492 58.1172C210.656 58.2812 210.848 58.3984 211.066 58.4688C211.293 58.5391 211.543 58.5742 211.816 58.5742C212.512 58.5742 213.059 58.4336 213.457 58.1523C213.863 57.8711 214.148 57.4883 214.312 57.0039C214.484 56.5117 214.57 55.9648 214.57 55.3633ZM223.711 43V61H220.324V43H223.711ZM233.355 57.4961C233.355 57.2539 233.285 57.0352 233.145 56.8398C233.004 56.6445 232.742 56.4648 232.359 56.3008C231.984 56.1289 231.441 55.9727 230.73 55.832C230.09 55.6914 229.492 55.5156 228.938 55.3047C228.391 55.0859 227.914 54.8242 227.508 54.5195C227.109 54.2148 226.797 53.8555 226.57 53.4414C226.344 53.0195 226.23 52.5391 226.23 52C226.23 51.4688 226.344 50.9688 226.57 50.5C226.805 50.0312 227.137 49.6172 227.566 49.2578C228.004 48.8906 228.535 48.6055 229.16 48.4023C229.793 48.1914 230.504 48.0859 231.293 48.0859C232.395 48.0859 233.34 48.2617 234.129 48.6133C234.926 48.9648 235.535 49.4492 235.957 50.0664C236.387 50.6758 236.602 51.3711 236.602 52.1523H233.227C233.227 51.8242 233.156 51.5312 233.016 51.2734C232.883 51.0078 232.672 50.8008 232.383 50.6523C232.102 50.4961 231.734 50.418 231.281 50.418C230.906 50.418 230.582 50.4844 230.309 50.6172C230.035 50.7422 229.824 50.9141 229.676 51.1328C229.535 51.3438 229.465 51.5781 229.465 51.8359C229.465 52.0312 229.504 52.207 229.582 52.3633C229.668 52.5117 229.805 52.6484 229.992 52.7734C230.18 52.8984 230.422 53.0156 230.719 53.125C231.023 53.2266 231.398 53.3203 231.844 53.4062C232.758 53.5938 233.574 53.8398 234.293 54.1445C235.012 54.4414 235.582 54.8477 236.004 55.3633C236.426 55.8711 236.637 56.5391 236.637 57.3672C236.637 57.9297 236.512 58.4453 236.262 58.9141C236.012 59.3828 235.652 59.793 235.184 60.1445C234.715 60.4883 234.152 60.7578 233.496 60.9531C232.848 61.1406 232.117 61.2344 231.305 61.2344C230.125 61.2344 229.125 61.0234 228.305 60.6016C227.492 60.1797 226.875 59.6445 226.453 58.9961C226.039 58.3398 225.832 57.668 225.832 56.9805H229.031C229.047 57.4414 229.164 57.8125 229.383 58.0938C229.609 58.375 229.895 58.5781 230.238 58.7031C230.59 58.8281 230.969 58.8906 231.375 58.8906C231.812 58.8906 232.176 58.832 232.465 58.7148C232.754 58.5898 232.973 58.4258 233.121 58.2227C233.277 58.0117 233.355 57.7695 233.355 57.4961ZM244.664 61.2344C243.68 61.2344 242.797 61.0781 242.016 60.7656C241.234 60.4453 240.57 60.0039 240.023 59.4414C239.484 58.8789 239.07 58.2266 238.781 57.4844C238.492 56.7344 238.348 55.9375 238.348 55.0938V54.625C238.348 53.6641 238.484 52.7852 238.758 51.9883C239.031 51.1914 239.422 50.5 239.93 49.9141C240.445 49.3281 241.07 48.8789 241.805 48.5664C242.539 48.2461 243.367 48.0859 244.289 48.0859C245.188 48.0859 245.984 48.2344 246.68 48.5312C247.375 48.8281 247.957 49.25 248.426 49.7969C248.902 50.3438 249.262 51 249.504 51.7656C249.746 52.5234 249.867 53.3672 249.867 54.2969V55.7031H239.789V53.4531H246.551V53.1953C246.551 52.7266 246.465 52.3086 246.293 51.9414C246.129 51.5664 245.879 51.2695 245.543 51.0508C245.207 50.832 244.777 50.7227 244.254 50.7227C243.809 50.7227 243.426 50.8203 243.105 51.0156C242.785 51.2109 242.523 51.4844 242.32 51.8359C242.125 52.1875 241.977 52.6016 241.875 53.0781C241.781 53.5469 241.734 54.0625 241.734 54.625V55.0938C241.734 55.6016 241.805 56.0703 241.945 56.5C242.094 56.9297 242.301 57.3008 242.566 57.6133C242.84 57.9258 243.168 58.168 243.551 58.3398C243.941 58.5117 244.383 58.5977 244.875 58.5977C245.484 58.5977 246.051 58.4805 246.574 58.2461C247.105 58.0039 247.562 57.6406 247.945 57.1562L249.586 58.9375C249.32 59.3203 248.957 59.6875 248.496 60.0391C248.043 60.3906 247.496 60.6797 246.855 60.9062C246.215 61.125 245.484 61.2344 244.664 61.2344Z" fill="#888888"/>
<path d="M112.125 84.875V119H103.898V84.875H112.125ZM122.391 84.875V91.2266H93.8672V84.875H122.391ZM135.68 119.469C133.617 119.469 131.773 119.148 130.148 118.508C128.523 117.852 127.148 116.953 126.023 115.812C124.914 114.672 124.062 113.359 123.469 111.875C122.891 110.391 122.602 108.82 122.602 107.164V106.273C122.602 104.414 122.859 102.695 123.375 101.117C123.891 99.5234 124.656 98.1328 125.672 96.9453C126.688 95.7578 127.961 94.8359 129.492 94.1797C131.023 93.5078 132.805 93.1719 134.836 93.1719C136.633 93.1719 138.242 93.4609 139.664 94.0391C141.086 94.6172 142.289 95.4453 143.273 96.5234C144.273 97.6016 145.031 98.9062 145.547 100.438C146.078 101.969 146.344 103.688 146.344 105.594V108.805H125.625V103.859H138.633V103.25C138.648 102.406 138.5 101.688 138.188 101.094C137.891 100.5 137.453 100.047 136.875 99.7344C136.297 99.4219 135.594 99.2656 134.766 99.2656C133.906 99.2656 133.195 99.4531 132.633 99.8281C132.086 100.203 131.656 100.719 131.344 101.375C131.047 102.016 130.836 102.758 130.711 103.602C130.586 104.445 130.523 105.336 130.523 106.273V107.164C130.523 108.102 130.648 108.953 130.898 109.719C131.164 110.484 131.539 111.141 132.023 111.688C132.523 112.219 133.117 112.633 133.805 112.93C134.508 113.227 135.305 113.375 136.195 113.375C137.273 113.375 138.336 113.172 139.383 112.766C140.43 112.359 141.328 111.688 142.078 110.75L145.664 115.016C145.148 115.75 144.414 116.461 143.461 117.148C142.523 117.836 141.398 118.398 140.086 118.836C138.773 119.258 137.305 119.469 135.68 119.469ZM160.266 113.375C161 113.375 161.625 113.242 162.141 112.977C162.672 112.695 163.07 112.305 163.336 111.805C163.617 111.289 163.75 110.672 163.734 109.953H171.164C171.18 111.859 170.711 113.531 169.758 114.969C168.82 116.391 167.539 117.5 165.914 118.297C164.305 119.078 162.484 119.469 160.453 119.469C158.469 119.469 156.734 119.148 155.25 118.508C153.766 117.852 152.523 116.945 151.523 115.789C150.539 114.617 149.797 113.25 149.297 111.688C148.812 110.125 148.57 108.43 148.57 106.602V106.062C148.57 104.234 148.812 102.539 149.297 100.977C149.797 99.3984 150.539 98.0312 151.523 96.875C152.523 95.7031 153.758 94.7969 155.227 94.1562C156.711 93.5 158.438 93.1719 160.406 93.1719C162.516 93.1719 164.375 93.5703 165.984 94.3672C167.609 95.1641 168.883 96.3203 169.805 97.8359C170.727 99.3516 171.18 101.188 171.164 103.344H163.734C163.75 102.578 163.633 101.891 163.383 101.281C163.133 100.672 162.742 100.188 162.211 99.8281C161.695 99.4531 161.031 99.2656 160.219 99.2656C159.406 99.2656 158.75 99.4453 158.25 99.8047C157.75 100.164 157.367 100.664 157.102 101.305C156.852 101.93 156.68 102.648 156.586 103.461C156.508 104.273 156.469 105.141 156.469 106.062V106.602C156.469 107.539 156.508 108.422 156.586 109.25C156.68 110.062 156.859 110.781 157.125 111.406C157.391 112.016 157.773 112.5 158.273 112.859C158.773 113.203 159.438 113.375 160.266 113.375ZM182.273 83V119H174.375V83H182.273ZM181.336 105.453L179.484 105.5C179.484 103.719 179.703 102.078 180.141 100.578C180.578 99.0781 181.203 97.7734 182.016 96.6641C182.828 95.5547 183.805 94.6953 184.945 94.0859C186.086 93.4766 187.352 93.1719 188.742 93.1719C189.992 93.1719 191.133 93.3516 192.164 93.7109C193.211 94.0703 194.109 94.6484 194.859 95.4453C195.625 96.2422 196.211 97.2812 196.617 98.5625C197.039 99.8438 197.25 101.406 197.25 103.25V119H189.305V103.203C189.305 102.172 189.156 101.375 188.859 100.812C188.578 100.234 188.172 99.8359 187.641 99.6172C187.109 99.3828 186.461 99.2656 185.695 99.2656C184.773 99.2656 184.023 99.4219 183.445 99.7344C182.867 100.047 182.422 100.484 182.109 101.047C181.812 101.594 181.609 102.242 181.5 102.992C181.391 103.742 181.336 104.562 181.336 105.453ZM231.539 109.93C231.539 109.398 231.461 108.922 231.305 108.5C231.148 108.062 230.859 107.656 230.438 107.281C230.016 106.906 229.406 106.531 228.609 106.156C227.828 105.766 226.797 105.359 225.516 104.938C224.016 104.438 222.57 103.875 221.18 103.25C219.789 102.609 218.547 101.867 217.453 101.023C216.359 100.164 215.492 99.1641 214.852 98.0234C214.211 96.8672 213.891 95.5234 213.891 93.9922C213.891 92.5234 214.219 91.2031 214.875 90.0312C215.531 88.8438 216.445 87.8359 217.617 87.0078C218.805 86.1641 220.195 85.5234 221.789 85.0859C223.383 84.6328 225.125 84.4062 227.016 84.4062C229.516 84.4062 231.719 84.8438 233.625 85.7188C235.547 86.5781 237.047 87.8047 238.125 89.3984C239.219 90.9766 239.766 92.8438 239.766 95H231.586C231.586 94.1406 231.406 93.3828 231.047 92.7266C230.703 92.0703 230.18 91.5547 229.477 91.1797C228.773 90.8047 227.891 90.6172 226.828 90.6172C225.797 90.6172 224.93 90.7734 224.227 91.0859C223.523 91.3984 222.992 91.8203 222.633 92.3516C222.273 92.8672 222.094 93.4375 222.094 94.0625C222.094 94.5781 222.234 95.0469 222.516 95.4688C222.812 95.875 223.227 96.2578 223.758 96.6172C224.305 96.9766 224.961 97.3203 225.727 97.6484C226.508 97.9766 227.383 98.2969 228.352 98.6094C230.164 99.1875 231.773 99.8359 233.18 100.555C234.602 101.258 235.797 102.062 236.766 102.969C237.75 103.859 238.492 104.875 238.992 106.016C239.508 107.156 239.766 108.445 239.766 109.883C239.766 111.414 239.469 112.773 238.875 113.961C238.281 115.148 237.43 116.156 236.32 116.984C235.211 117.797 233.883 118.414 232.336 118.836C230.789 119.258 229.062 119.469 227.156 119.469C225.406 119.469 223.68 119.25 221.977 118.812C220.289 118.359 218.758 117.672 217.383 116.75C216.008 115.812 214.906 114.617 214.078 113.164C213.266 111.695 212.859 109.953 212.859 107.938H221.109C221.109 108.938 221.242 109.781 221.508 110.469C221.773 111.156 222.164 111.711 222.68 112.133C223.195 112.539 223.828 112.836 224.578 113.023C225.328 113.195 226.188 113.281 227.156 113.281C228.203 113.281 229.047 113.133 229.688 112.836C230.328 112.523 230.797 112.117 231.094 111.617C231.391 111.102 231.539 110.539 231.539 109.93ZM256.992 93.6406V99.125H241.711V93.6406H256.992ZM244.922 87.3359H252.82V110.727C252.82 111.398 252.898 111.922 253.055 112.297C253.211 112.656 253.477 112.914 253.852 113.07C254.242 113.211 254.758 113.281 255.398 113.281C255.852 113.281 256.227 113.273 256.523 113.258C256.82 113.227 257.102 113.188 257.367 113.141V118.789C256.695 119.008 255.992 119.172 255.258 119.281C254.523 119.406 253.742 119.469 252.914 119.469C251.227 119.469 249.781 119.203 248.578 118.672C247.391 118.141 246.484 117.305 245.859 116.164C245.234 115.023 244.922 113.539 244.922 111.711V87.3359ZM273.305 112.625V102.172C273.305 101.453 273.203 100.836 273 100.32C272.797 99.8047 272.477 99.4062 272.039 99.125C271.602 98.8281 271.016 98.6797 270.281 98.6797C269.688 98.6797 269.18 98.7812 268.758 98.9844C268.336 99.1875 268.016 99.4922 267.797 99.8984C267.578 100.305 267.469 100.82 267.469 101.445H259.57C259.57 100.273 259.828 99.1875 260.344 98.1875C260.875 97.1719 261.625 96.2891 262.594 95.5391C263.578 94.7891 264.75 94.2109 266.109 93.8047C267.484 93.3828 269.016 93.1719 270.703 93.1719C272.719 93.1719 274.516 93.5078 276.094 94.1797C277.688 94.8516 278.945 95.8594 279.867 97.2031C280.789 98.5312 281.25 100.203 281.25 102.219V112.602C281.25 114.258 281.344 115.516 281.531 116.375C281.719 117.219 281.984 117.961 282.328 118.602V119H274.406C274.031 118.219 273.75 117.266 273.562 116.141C273.391 115 273.305 113.828 273.305 112.625ZM274.266 103.508L274.312 107.727H270.82C270.086 107.727 269.461 107.828 268.945 108.031C268.445 108.234 268.039 108.516 267.727 108.875C267.43 109.219 267.211 109.609 267.07 110.047C266.945 110.484 266.883 110.945 266.883 111.43C266.883 111.898 266.992 112.32 267.211 112.695C267.445 113.055 267.758 113.336 268.148 113.539C268.539 113.742 268.977 113.844 269.461 113.844C270.336 113.844 271.078 113.68 271.688 113.352C272.312 113.008 272.789 112.594 273.117 112.109C273.445 111.625 273.609 111.172 273.609 110.75L275.344 113.984C275.031 114.609 274.672 115.242 274.266 115.883C273.875 116.523 273.383 117.117 272.789 117.664C272.211 118.195 271.5 118.633 270.656 118.977C269.812 119.305 268.789 119.469 267.586 119.469C266.023 119.469 264.586 119.148 263.273 118.508C261.977 117.867 260.938 116.977 260.156 115.836C259.375 114.68 258.984 113.352 258.984 111.852C258.984 110.539 259.219 109.367 259.688 108.336C260.172 107.305 260.898 106.43 261.867 105.711C262.836 104.992 264.07 104.445 265.57 104.07C267.07 103.695 268.836 103.508 270.867 103.508H274.266ZM296.344 113.375C297.078 113.375 297.703 113.242 298.219 112.977C298.75 112.695 299.148 112.305 299.414 111.805C299.695 111.289 299.828 110.672 299.812 109.953H307.242C307.258 111.859 306.789 113.531 305.836 114.969C304.898 116.391 303.617 117.5 301.992 118.297C300.383 119.078 298.562 119.469 296.531 119.469C294.547 119.469 292.812 119.148 291.328 118.508C289.844 117.852 288.602 116.945 287.602 115.789C286.617 114.617 285.875 113.25 285.375 111.688C284.891 110.125 284.648 108.43 284.648 106.602V106.062C284.648 104.234 284.891 102.539 285.375 100.977C285.875 99.3984 286.617 98.0312 287.602 96.875C288.602 95.7031 289.836 94.7969 291.305 94.1562C292.789 93.5 294.516 93.1719 296.484 93.1719C298.594 93.1719 300.453 93.5703 302.062 94.3672C303.688 95.1641 304.961 96.3203 305.883 97.8359C306.805 99.3516 307.258 101.188 307.242 103.344H299.812C299.828 102.578 299.711 101.891 299.461 101.281C299.211 100.672 298.82 100.188 298.289 99.8281C297.773 99.4531 297.109 99.2656 296.297 99.2656C295.484 99.2656 294.828 99.4453 294.328 99.8047C293.828 100.164 293.445 100.664 293.18 101.305C292.93 101.93 292.758 102.648 292.664 103.461C292.586 104.273 292.547 105.141 292.547 106.062V106.602C292.547 107.539 292.586 108.422 292.664 109.25C292.758 110.062 292.938 110.781 293.203 111.406C293.469 112.016 293.852 112.5 294.352 112.859C294.852 113.203 295.516 113.375 296.344 113.375ZM318.586 82.9766V119H310.688V82.9766H318.586ZM334.805 93.6406L323.789 106.555L318.023 112.32L314.578 107.305L319.383 101.047L325.336 93.6406H334.805ZM326.344 119L319.57 107.445L325.406 103.297L335.391 119H326.344Z" fill="black"/>
<path d="M1134 0H1348C1356.28 0 1363 6.71573 1363 15V148C1363 156.284 1356.28 163 1348 163H1134V0Z" fill="#00B0FF"/>
<path fill-rule="evenodd" clip-rule="evenodd" d="M1218.75 53C1218.62 53 1218.49 53.0527 1218.4 53.1464C1218.3 53.2402 1218.25 53.3674 1218.25 53.5V109.5C1218.25 109.633 1218.3 109.76 1218.4 109.854C1218.49 109.947 1218.62 110 1218.75 110H1278.25C1278.38 110 1278.51 109.947 1278.6 109.854C1278.7 109.76 1278.75 109.633 1278.75 109.5V64C1278.75 63.8674 1278.7 63.7402 1278.6 63.6464C1278.51 63.5527 1278.38 63.5 1278.25 63.5H1248.5C1247.61 63.5 1246.77 63.1045 1246.2 62.4206L1238.34 53H1218.75ZM1214.15 48.9038C1215.37 47.6848 1217.03 47 1218.75 47H1239.75C1240.64 47 1241.48 47.3955 1242.05 48.0794L1249.91 57.5H1278.25C1279.97 57.5 1281.63 58.1848 1282.85 59.4038C1284.07 60.6228 1284.75 62.2761 1284.75 64V109.5C1284.75 111.224 1284.07 112.877 1282.85 114.096C1281.63 115.315 1279.97 116 1278.25 116H1218.75C1217.03 116 1215.37 115.315 1214.15 114.096C1212.93 112.877 1212.25 111.224 1212.25 109.5V53.5C1212.25 51.7761 1212.93 50.1228 1214.15 48.9038Z" fill="white"/>
<path fill-rule="evenodd" clip-rule="evenodd" d="M1243.97 75.5251C1245.34 76.892 1245.34 79.108 1243.97 80.4749L1237.7 86.75L1243.97 93.0251C1245.34 94.392 1245.34 96.608 1243.97 97.9749C1242.61 99.3417 1240.39 99.3417 1239.03 97.9749L1230.28 89.2249C1228.91 87.858 1228.91 85.642 1230.28 84.2751L1239.03 75.5251C1240.39 74.1583 1242.61 74.1583 1243.97 75.5251Z" fill="white"/>
<path fill-rule="evenodd" clip-rule="evenodd" d="M1252.28 97.9749C1250.91 96.608 1250.91 94.392 1252.28 93.0251L1258.55 86.75L1252.28 80.4749C1250.91 79.108 1250.91 76.892 1252.28 75.5251C1253.64 74.1583 1255.86 74.1583 1257.22 75.5251L1265.97 84.2751C1267.34 85.642 1267.34 87.858 1265.97 89.2249L1257.22 97.9749C1255.86 99.3417 1253.64 99.3417 1252.28 97.9749Z" fill="white"/>
</svg>
