<svg width="1363" height="163" viewBox="0 0 1363 163" fill="none" xmlns="http://www.w3.org/2000/svg">
<path d="M0 15C0 6.71573 6.71573 0 15 0H37V163H15C6.71573 163 0 156.284 0 148V15Z" fill="#424242"/>
<rect width="1097" height="163" transform="translate(37)" fill="#F0F0F0"/>
<path d="M101.906 53.9219L94.3945 51.2383V48.0859L104.602 52.375V54.6367L101.906 53.9219ZM94.3945 56.1719L101.918 53.4297L104.602 52.7852V55.0352L94.3945 59.3242V56.1719ZM125.52 54.918H121.172V52.1758H125.52C126.191 52.1758 126.738 52.0664 127.16 51.8477C127.582 51.6211 127.891 51.3086 128.086 50.9102C128.281 50.5117 128.379 50.0625 128.379 49.5625C128.379 49.0547 128.281 48.582 128.086 48.1445C127.891 47.707 127.582 47.3555 127.16 47.0898C126.738 46.8242 126.191 46.6914 125.52 46.6914H122.391V61H118.875V43.9375H125.52C126.855 43.9375 128 44.1797 128.953 44.6641C129.914 45.1406 130.648 45.8008 131.156 46.6445C131.664 47.4883 131.918 48.4531 131.918 49.5391C131.918 50.6406 131.664 51.5938 131.156 52.3984C130.648 53.2031 129.914 53.8242 128.953 54.2617C128 54.6992 126.855 54.918 125.52 54.918ZM139.805 61.2344C138.82 61.2344 137.938 61.0781 137.156 60.7656C136.375 60.4453 135.711 60.0039 135.164 59.4414C134.625 58.8789 134.211 58.2266 133.922 57.4844C133.633 56.7344 133.488 55.9375 133.488 55.0938V54.625C133.488 53.6641 133.625 52.7852 133.898 51.9883C134.172 51.1914 134.562 50.5 135.07 49.9141C135.586 49.3281 136.211 48.8789 136.945 48.5664C137.68 48.2461 138.508 48.0859 139.43 48.0859C140.328 48.0859 141.125 48.2344 141.82 48.5312C142.516 48.8281 143.098 49.25 143.566 49.7969C144.043 50.3438 144.402 51 144.645 51.7656C144.887 52.5234 145.008 53.3672 145.008 54.2969V55.7031H134.93V53.4531H141.691V53.1953C141.691 52.7266 141.605 52.3086 141.434 51.9414C141.27 51.5664 141.02 51.2695 140.684 51.0508C140.348 50.832 139.918 50.7227 139.395 50.7227C138.949 50.7227 138.566 50.8203 138.246 51.0156C137.926 51.2109 137.664 51.4844 137.461 51.8359C137.266 52.1875 137.117 52.6016 137.016 53.0781C136.922 53.5469 136.875 54.0625 136.875 54.625V55.0938C136.875 55.6016 136.945 56.0703 137.086 56.5C137.234 56.9297 137.441 57.3008 137.707 57.6133C137.98 57.9258 138.309 58.168 138.691 58.3398C139.082 58.5117 139.523 58.5977 140.016 58.5977C140.625 58.5977 141.191 58.4805 141.715 58.2461C142.246 58.0039 142.703 57.6406 143.086 57.1562L144.727 58.9375C144.461 59.3203 144.098 59.6875 143.637 60.0391C143.184 60.3906 142.637 60.6797 141.996 60.9062C141.355 61.125 140.625 61.2344 139.805 61.2344ZM153.773 58.1406V52.4922C153.773 52.0859 153.707 51.7383 153.574 51.4492C153.441 51.1523 153.234 50.9219 152.953 50.7578C152.68 50.5938 152.324 50.5117 151.887 50.5117C151.512 50.5117 151.188 50.5781 150.914 50.7109C150.641 50.8359 150.43 51.0195 150.281 51.2617C150.133 51.4961 150.059 51.7734 150.059 52.0938H146.684C146.684 51.5547 146.809 51.043 147.059 50.5586C147.309 50.0742 147.672 49.6484 148.148 49.2812C148.625 48.9062 149.191 48.6133 149.848 48.4023C150.512 48.1914 151.254 48.0859 152.074 48.0859C153.059 48.0859 153.934 48.25 154.699 48.5781C155.465 48.9062 156.066 49.3984 156.504 50.0547C156.949 50.7109 157.172 51.5312 157.172 52.5156V57.9414C157.172 58.6367 157.215 59.207 157.301 59.6523C157.387 60.0898 157.512 60.4727 157.676 60.8008V61H154.266C154.102 60.6562 153.977 60.2266 153.891 59.7109C153.812 59.1875 153.773 58.6641 153.773 58.1406ZM154.219 53.2773L154.242 55.1875H152.355C151.91 55.1875 151.523 55.2383 151.195 55.3398C150.867 55.4414 150.598 55.5859 150.387 55.7734C150.176 55.9531 150.02 56.1641 149.918 56.4062C149.824 56.6484 149.777 56.9141 149.777 57.2031C149.777 57.4922 149.844 57.7539 149.977 57.9883C150.109 58.2148 150.301 58.3945 150.551 58.5273C150.801 58.6523 151.094 58.7148 151.43 58.7148C151.938 58.7148 152.379 58.6133 152.754 58.4102C153.129 58.207 153.418 57.957 153.621 57.6602C153.832 57.3633 153.941 57.082 153.949 56.8164L154.84 58.2461C154.715 58.5664 154.543 58.8984 154.324 59.2422C154.113 59.5859 153.844 59.9102 153.516 60.2148C153.188 60.5117 152.793 60.7578 152.332 60.9531C151.871 61.1406 151.324 61.2344 150.691 61.2344C149.887 61.2344 149.156 61.0742 148.5 60.7539C147.852 60.4258 147.336 59.9766 146.953 59.4062C146.578 58.8281 146.391 58.1719 146.391 57.4375C146.391 56.7734 146.516 56.1836 146.766 55.668C147.016 55.1523 147.383 54.7188 147.867 54.3672C148.359 54.0078 148.973 53.7383 149.707 53.5586C150.441 53.3711 151.293 53.2773 152.262 53.2773H154.219ZM165.012 58.5977C165.426 58.5977 165.793 58.5195 166.113 58.3633C166.434 58.1992 166.684 57.9727 166.863 57.6836C167.051 57.3867 167.148 57.0391 167.156 56.6406H170.332C170.324 57.5312 170.086 58.3242 169.617 59.0195C169.148 59.707 168.52 60.25 167.73 60.6484C166.941 61.0391 166.059 61.2344 165.082 61.2344C164.098 61.2344 163.238 61.0703 162.504 60.7422C161.777 60.4141 161.172 59.9609 160.688 59.3828C160.203 58.7969 159.84 58.1172 159.598 57.3438C159.355 56.5625 159.234 55.7266 159.234 54.8359V54.4961C159.234 53.5977 159.355 52.7617 159.598 51.9883C159.84 51.207 160.203 50.5273 160.688 49.9492C161.172 49.3633 161.777 48.9062 162.504 48.5781C163.23 48.25 164.082 48.0859 165.059 48.0859C166.098 48.0859 167.008 48.2852 167.789 48.6836C168.578 49.082 169.195 49.6523 169.641 50.3945C170.094 51.1289 170.324 52 170.332 53.0078H167.156C167.148 52.5859 167.059 52.2031 166.887 51.8594C166.723 51.5156 166.48 51.2422 166.16 51.0391C165.848 50.8281 165.461 50.7227 165 50.7227C164.508 50.7227 164.105 50.8281 163.793 51.0391C163.48 51.2422 163.238 51.5234 163.066 51.8828C162.895 52.2344 162.773 52.6367 162.703 53.0898C162.641 53.5352 162.609 54.0039 162.609 54.4961V54.8359C162.609 55.3281 162.641 55.8008 162.703 56.2539C162.766 56.707 162.883 57.1094 163.055 57.4609C163.234 57.8125 163.48 58.0898 163.793 58.293C164.105 58.4961 164.512 58.5977 165.012 58.5977ZM178.125 61.2344C177.141 61.2344 176.258 61.0781 175.477 60.7656C174.695 60.4453 174.031 60.0039 173.484 59.4414C172.945 58.8789 172.531 58.2266 172.242 57.4844C171.953 56.7344 171.809 55.9375 171.809 55.0938V54.625C171.809 53.6641 171.945 52.7852 172.219 51.9883C172.492 51.1914 172.883 50.5 173.391 49.9141C173.906 49.3281 174.531 48.8789 175.266 48.5664C176 48.2461 176.828 48.0859 177.75 48.0859C178.648 48.0859 179.445 48.2344 180.141 48.5312C180.836 48.8281 181.418 49.25 181.887 49.7969C182.363 50.3438 182.723 51 182.965 51.7656C183.207 52.5234 183.328 53.3672 183.328 54.2969V55.7031H173.25V53.4531H180.012V53.1953C180.012 52.7266 179.926 52.3086 179.754 51.9414C179.59 51.5664 179.34 51.2695 179.004 51.0508C178.668 50.832 178.238 50.7227 177.715 50.7227C177.27 50.7227 176.887 50.8203 176.566 51.0156C176.246 51.2109 175.984 51.4844 175.781 51.8359C175.586 52.1875 175.438 52.6016 175.336 53.0781C175.242 53.5469 175.195 54.0625 175.195 54.625V55.0938C175.195 55.6016 175.266 56.0703 175.406 56.5C175.555 56.9297 175.762 57.3008 176.027 57.6133C176.301 57.9258 176.629 58.168 177.012 58.3398C177.402 58.5117 177.844 58.5977 178.336 58.5977C178.945 58.5977 179.512 58.4805 180.035 58.2461C180.566 58.0039 181.023 57.6406 181.406 57.1562L183.047 58.9375C182.781 59.3203 182.418 59.6875 181.957 60.0391C181.504 60.3906 180.957 60.6797 180.316 60.9062C179.676 61.125 178.945 61.2344 178.125 61.2344ZM198.082 54.918H193.734V52.1758H198.082C198.754 52.1758 199.301 52.0664 199.723 51.8477C200.145 51.6211 200.453 51.3086 200.648 50.9102C200.844 50.5117 200.941 50.0625 200.941 49.5625C200.941 49.0547 200.844 48.582 200.648 48.1445C200.453 47.707 200.145 47.3555 199.723 47.0898C199.301 46.8242 198.754 46.6914 198.082 46.6914H194.953V61H191.438V43.9375H198.082C199.418 43.9375 200.562 44.1797 201.516 44.6641C202.477 45.1406 203.211 45.8008 203.719 46.6445C204.227 47.4883 204.48 48.4531 204.48 49.5391C204.48 50.6406 204.227 51.5938 203.719 52.3984C203.211 53.2031 202.477 53.8242 201.516 54.2617C200.562 54.6992 199.418 54.918 198.082 54.918ZM214.195 57.9648V48.3203H217.57V61H214.395L214.195 57.9648ZM214.57 55.3633L215.566 55.3398C215.566 56.1836 215.469 56.9688 215.273 57.6953C215.078 58.4141 214.785 59.0391 214.395 59.5703C214.004 60.0938 213.512 60.5039 212.918 60.8008C212.324 61.0898 211.625 61.2344 210.82 61.2344C210.203 61.2344 209.633 61.1484 209.109 60.9766C208.594 60.7969 208.148 60.5195 207.773 60.1445C207.406 59.7617 207.117 59.2734 206.906 58.6797C206.703 58.0781 206.602 57.3555 206.602 56.5117V48.3203H209.977V56.5352C209.977 56.9102 210.02 57.2266 210.105 57.4844C210.199 57.7422 210.328 57.9531 210.492 58.1172C210.656 58.2812 210.848 58.3984 211.066 58.4688C211.293 58.5391 211.543 58.5742 211.816 58.5742C212.512 58.5742 213.059 58.4336 213.457 58.1523C213.863 57.8711 214.148 57.4883 214.312 57.0039C214.484 56.5117 214.57 55.9648 214.57 55.3633ZM223.711 43V61H220.324V43H223.711ZM233.355 57.4961C233.355 57.2539 233.285 57.0352 233.145 56.8398C233.004 56.6445 232.742 56.4648 232.359 56.3008C231.984 56.1289 231.441 55.9727 230.73 55.832C230.09 55.6914 229.492 55.5156 228.938 55.3047C228.391 55.0859 227.914 54.8242 227.508 54.5195C227.109 54.2148 226.797 53.8555 226.57 53.4414C226.344 53.0195 226.23 52.5391 226.23 52C226.23 51.4688 226.344 50.9688 226.57 50.5C226.805 50.0312 227.137 49.6172 227.566 49.2578C228.004 48.8906 228.535 48.6055 229.16 48.4023C229.793 48.1914 230.504 48.0859 231.293 48.0859C232.395 48.0859 233.34 48.2617 234.129 48.6133C234.926 48.9648 235.535 49.4492 235.957 50.0664C236.387 50.6758 236.602 51.3711 236.602 52.1523H233.227C233.227 51.8242 233.156 51.5312 233.016 51.2734C232.883 51.0078 232.672 50.8008 232.383 50.6523C232.102 50.4961 231.734 50.418 231.281 50.418C230.906 50.418 230.582 50.4844 230.309 50.6172C230.035 50.7422 229.824 50.9141 229.676 51.1328C229.535 51.3438 229.465 51.5781 229.465 51.8359C229.465 52.0312 229.504 52.207 229.582 52.3633C229.668 52.5117 229.805 52.6484 229.992 52.7734C230.18 52.8984 230.422 53.0156 230.719 53.125C231.023 53.2266 231.398 53.3203 231.844 53.4062C232.758 53.5938 233.574 53.8398 234.293 54.1445C235.012 54.4414 235.582 54.8477 236.004 55.3633C236.426 55.8711 236.637 56.5391 236.637 57.3672C236.637 57.9297 236.512 58.4453 236.262 58.9141C236.012 59.3828 235.652 59.793 235.184 60.1445C234.715 60.4883 234.152 60.7578 233.496 60.9531C232.848 61.1406 232.117 61.2344 231.305 61.2344C230.125 61.2344 229.125 61.0234 228.305 60.6016C227.492 60.1797 226.875 59.6445 226.453 58.9961C226.039 58.3398 225.832 57.668 225.832 56.9805H229.031C229.047 57.4414 229.164 57.8125 229.383 58.0938C229.609 58.375 229.895 58.5781 230.238 58.7031C230.59 58.8281 230.969 58.8906 231.375 58.8906C231.812 58.8906 232.176 58.832 232.465 58.7148C232.754 58.5898 232.973 58.4258 233.121 58.2227C233.277 58.0117 233.355 57.7695 233.355 57.4961ZM244.664 61.2344C243.68 61.2344 242.797 61.0781 242.016 60.7656C241.234 60.4453 240.57 60.0039 240.023 59.4414C239.484 58.8789 239.07 58.2266 238.781 57.4844C238.492 56.7344 238.348 55.9375 238.348 55.0938V54.625C238.348 53.6641 238.484 52.7852 238.758 51.9883C239.031 51.1914 239.422 50.5 239.93 49.9141C240.445 49.3281 241.07 48.8789 241.805 48.5664C242.539 48.2461 243.367 48.0859 244.289 48.0859C245.188 48.0859 245.984 48.2344 246.68 48.5312C247.375 48.8281 247.957 49.25 248.426 49.7969C248.902 50.3438 249.262 51 249.504 51.7656C249.746 52.5234 249.867 53.3672 249.867 54.2969V55.7031H239.789V53.4531H246.551V53.1953C246.551 52.7266 246.465 52.3086 246.293 51.9414C246.129 51.5664 245.879 51.2695 245.543 51.0508C245.207 50.832 244.777 50.7227 244.254 50.7227C243.809 50.7227 243.426 50.8203 243.105 51.0156C242.785 51.2109 242.523 51.4844 242.32 51.8359C242.125 52.1875 241.977 52.6016 241.875 53.0781C241.781 53.5469 241.734 54.0625 241.734 54.625V55.0938C241.734 55.6016 241.805 56.0703 241.945 56.5C242.094 56.9297 242.301 57.3008 242.566 57.6133C242.84 57.9258 243.168 58.168 243.551 58.3398C243.941 58.5117 244.383 58.5977 244.875 58.5977C245.484 58.5977 246.051 58.4805 246.574 58.2461C247.105 58.0039 247.562 57.6406 247.945 57.1562L249.586 58.9375C249.32 59.3203 248.957 59.6875 248.496 60.0391C248.043 60.3906 247.496 60.6797 246.855 60.9062C246.215 61.125 245.484 61.2344 244.664 61.2344Z" fill="#888888"/>
<path d="M118.594 98.4219V104.75H101.086V98.4219H118.594ZM103.828 84.875V119H95.6016V84.875H103.828ZM124.125 84.875V119H115.922V84.875H124.125ZM127.992 106.578V106.086C127.992 104.227 128.258 102.516 128.789 100.953C129.32 99.375 130.102 98.0078 131.133 96.8516C132.164 95.6953 133.438 94.7969 134.953 94.1562C136.469 93.5 138.219 93.1719 140.203 93.1719C142.203 93.1719 143.961 93.5 145.477 94.1562C147.008 94.7969 148.289 95.6953 149.32 96.8516C150.352 98.0078 151.133 99.375 151.664 100.953C152.195 102.516 152.461 104.227 152.461 106.086V106.578C152.461 108.422 152.195 110.133 151.664 111.711C151.133 113.273 150.352 114.641 149.32 115.812C148.289 116.969 147.016 117.867 145.5 118.508C143.984 119.148 142.234 119.469 140.25 119.469C138.266 119.469 136.508 119.148 134.977 118.508C133.445 117.867 132.164 116.969 131.133 115.812C130.102 114.641 129.32 113.273 128.789 111.711C128.258 110.133 127.992 108.422 127.992 106.578ZM135.891 106.086V106.578C135.891 107.531 135.961 108.422 136.102 109.25C136.242 110.078 136.477 110.805 136.805 111.43C137.133 112.039 137.578 112.516 138.141 112.859C138.703 113.203 139.406 113.375 140.25 113.375C141.078 113.375 141.766 113.203 142.312 112.859C142.875 112.516 143.32 112.039 143.648 111.43C143.977 110.805 144.211 110.078 144.352 109.25C144.492 108.422 144.562 107.531 144.562 106.578V106.086C144.562 105.164 144.492 104.297 144.352 103.484C144.211 102.656 143.977 101.93 143.648 101.305C143.32 100.664 142.875 100.164 142.312 99.8047C141.75 99.4453 141.047 99.2656 140.203 99.2656C139.375 99.2656 138.68 99.4453 138.117 99.8047C137.57 100.164 137.133 100.664 136.805 101.305C136.477 101.93 136.242 102.656 136.102 103.484C135.961 104.297 135.891 105.164 135.891 106.086ZM163.688 111.453L168.375 93.6406H173.32L171.562 102.57L166.922 119H162.961L163.688 111.453ZM161.836 93.6406L164.742 111.312L165.07 119H160.266L154.266 93.6406H161.836ZM177.492 110.938L180.422 93.6406H187.992L182.039 119H177.234L177.492 110.938ZM173.883 93.6406L178.617 111.406L179.344 119H175.336L170.789 102.617L169.102 93.6406H173.883ZM218.297 84.875V119H210.07V84.875H218.297ZM228.562 84.875V91.2266H200.039V84.875H228.562ZM225.773 106.578V106.086C225.773 104.227 226.039 102.516 226.57 100.953C227.102 99.375 227.883 98.0078 228.914 96.8516C229.945 95.6953 231.219 94.7969 232.734 94.1562C234.25 93.5 236 93.1719 237.984 93.1719C239.984 93.1719 241.742 93.5 243.258 94.1562C244.789 94.7969 246.07 95.6953 247.102 96.8516C248.133 98.0078 248.914 99.375 249.445 100.953C249.977 102.516 250.242 104.227 250.242 106.086V106.578C250.242 108.422 249.977 110.133 249.445 111.711C248.914 113.273 248.133 114.641 247.102 115.812C246.07 116.969 244.797 117.867 243.281 118.508C241.766 119.148 240.016 119.469 238.031 119.469C236.047 119.469 234.289 119.148 232.758 118.508C231.227 117.867 229.945 116.969 228.914 115.812C227.883 114.641 227.102 113.273 226.57 111.711C226.039 110.133 225.773 108.422 225.773 106.578ZM233.672 106.086V106.578C233.672 107.531 233.742 108.422 233.883 109.25C234.023 110.078 234.258 110.805 234.586 111.43C234.914 112.039 235.359 112.516 235.922 112.859C236.484 113.203 237.188 113.375 238.031 113.375C238.859 113.375 239.547 113.203 240.094 112.859C240.656 112.516 241.102 112.039 241.43 111.43C241.758 110.805 241.992 110.078 242.133 109.25C242.273 108.422 242.344 107.531 242.344 106.578V106.086C242.344 105.164 242.273 104.297 242.133 103.484C241.992 102.656 241.758 101.93 241.43 101.305C241.102 100.664 240.656 100.164 240.094 99.8047C239.531 99.4453 238.828 99.2656 237.984 99.2656C237.156 99.2656 236.461 99.4453 235.898 99.8047C235.352 100.164 234.914 100.664 234.586 101.305C234.258 101.93 234.023 102.656 233.883 103.484C233.742 104.297 233.672 105.164 233.672 106.086ZM266.086 84.875H279.516C282.141 84.875 284.422 85.2656 286.359 86.0469C288.297 86.8281 289.789 87.9844 290.836 89.5156C291.898 91.0469 292.43 92.9375 292.43 95.1875C292.43 97.1406 292.125 98.7734 291.516 100.086C290.906 101.398 290.055 102.484 288.961 103.344C287.883 104.188 286.625 104.883 285.188 105.43L282.492 106.953H271.219L271.172 100.602H279.516C280.562 100.602 281.43 100.414 282.117 100.039C282.805 99.6641 283.32 99.1328 283.664 98.4453C284.023 97.7422 284.203 96.9062 284.203 95.9375C284.203 94.9531 284.023 94.1094 283.664 93.4062C283.305 92.7031 282.773 92.1641 282.07 91.7891C281.383 91.4141 280.531 91.2266 279.516 91.2266H274.312V119H266.086V84.875ZM284.766 119L277.219 103.906L285.938 103.859L293.578 118.648V119H284.766ZM311.836 112.836V93.6406H319.758V119H312.352L311.836 112.836ZM312.586 107.68L314.648 107.633C314.648 109.336 314.445 110.914 314.039 112.367C313.633 113.805 313.031 115.055 312.234 116.117C311.453 117.18 310.484 118.008 309.328 118.602C308.188 119.18 306.867 119.469 305.367 119.469C304.117 119.469 302.969 119.297 301.922 118.953C300.891 118.594 300 118.039 299.25 117.289C298.5 116.523 297.914 115.547 297.492 114.359C297.086 113.156 296.883 111.719 296.883 110.047V93.6406H304.781V110.094C304.781 110.656 304.852 111.141 304.992 111.547C305.133 111.953 305.336 112.297 305.602 112.578C305.867 112.844 306.195 113.047 306.586 113.188C306.992 113.312 307.453 113.375 307.969 113.375C309.156 113.375 310.086 113.125 310.758 112.625C311.43 112.125 311.898 111.445 312.164 110.586C312.445 109.727 312.586 108.758 312.586 107.68ZM331.875 99.0547V119H323.977V93.6406H331.383L331.875 99.0547ZM330.938 105.453L329.086 105.5C329.086 103.562 329.32 101.836 329.789 100.32C330.258 98.7891 330.922 97.4922 331.781 96.4297C332.641 95.3672 333.664 94.5625 334.852 94.0156C336.055 93.4531 337.391 93.1719 338.859 93.1719C340.031 93.1719 341.102 93.3438 342.07 93.6875C343.055 94.0312 343.898 94.5859 344.602 95.3516C345.32 96.1172 345.867 97.1328 346.242 98.3984C346.633 99.6484 346.828 101.195 346.828 103.039V119H338.883V103.016C338.883 102 338.742 101.227 338.461 100.695C338.18 100.148 337.773 99.7734 337.242 99.5703C336.711 99.3672 336.062 99.2656 335.297 99.2656C334.484 99.2656 333.797 99.4219 333.234 99.7344C332.672 100.047 332.219 100.484 331.875 101.047C331.547 101.594 331.305 102.242 331.148 102.992C331.008 103.742 330.938 104.562 330.938 105.453ZM363.773 108.195H357.047C357.047 106.82 357.141 105.609 357.328 104.562C357.531 103.5 357.875 102.547 358.359 101.703C358.844 100.859 359.5 100.078 360.328 99.3594C361.062 98.75 361.695 98.1641 362.227 97.6016C362.758 97.0391 363.164 96.4688 363.445 95.8906C363.727 95.3125 363.867 94.6953 363.867 94.0391C363.867 93.2266 363.75 92.5625 363.516 92.0469C363.297 91.5312 362.961 91.1484 362.508 90.8984C362.07 90.6328 361.516 90.5 360.844 90.5C360.297 90.5 359.781 90.6328 359.297 90.8984C358.828 91.1641 358.445 91.5781 358.148 92.1406C357.852 92.6875 357.688 93.4141 357.656 94.3203H349.711C349.758 91.9922 350.273 90.1016 351.258 88.6484C352.258 87.1797 353.586 86.1094 355.242 85.4375C356.914 84.75 358.781 84.4062 360.844 84.4062C363.125 84.4062 365.086 84.7578 366.727 85.4609C368.367 86.1641 369.625 87.2109 370.5 88.6016C371.375 89.9766 371.812 91.6719 371.812 93.6875C371.812 95.0312 371.555 96.2031 371.039 97.2031C370.539 98.1875 369.859 99.1094 369 99.9688C368.156 100.812 367.211 101.719 366.164 102.688C365.258 103.484 364.641 104.297 364.312 105.125C363.984 105.938 363.805 106.961 363.773 108.195ZM356.086 115.32C356.086 114.195 356.492 113.258 357.305 112.508C358.117 111.742 359.172 111.359 360.469 111.359C361.766 111.359 362.82 111.742 363.633 112.508C364.445 113.258 364.852 114.195 364.852 115.32C364.852 116.445 364.445 117.391 363.633 118.156C362.82 118.906 361.766 119.281 360.469 119.281C359.172 119.281 358.117 118.906 357.305 118.156C356.492 117.391 356.086 116.445 356.086 115.32Z" fill="black"/>
<path d="M1134 0H1348C1356.28 0 1363 6.71573 1363 15V148C1363 156.284 1356.28 163 1348 163H1134V0Z" fill="#00B0FF"/>
<path d="M1260.62 78.8078C1263.81 78.8078 1266.93 79.7552 1269.59 81.5302C1272.25 83.3052 1274.32 85.8281 1275.54 88.7798C1276.76 91.7315 1277.08 94.9795 1276.46 98.1131C1275.84 101.247 1274.3 104.125 1272.04 106.384C1269.78 108.643 1266.9 110.182 1263.77 110.805C1260.63 111.428 1257.39 111.108 1254.43 109.886C1251.48 108.663 1248.96 106.593 1247.18 103.936C1245.41 101.28 1244.46 98.1565 1244.46 94.9616C1244.46 90.6774 1246.16 86.5686 1249.19 83.5392C1252.22 80.5097 1256.33 78.8078 1260.62 78.8078ZM1260.62 73.4232C1256.36 73.4232 1252.19 74.6864 1248.65 77.0531C1245.11 79.4198 1242.35 82.7836 1240.72 86.7192C1239.09 90.6549 1238.66 94.9855 1239.49 99.1636C1240.32 103.342 1242.37 107.179 1245.39 110.192C1248.4 113.204 1252.24 115.255 1256.41 116.086C1260.59 116.917 1264.92 116.491 1268.86 114.861C1272.79 113.23 1276.16 110.47 1278.52 106.928C1280.89 103.386 1282.15 99.2215 1282.15 94.9616C1282.15 89.2493 1279.88 83.7709 1275.85 79.7317C1271.81 75.6924 1266.33 73.4232 1260.62 73.4232Z" fill="white"/>
<path d="M1274.08 46.4999H1220.23C1218.8 46.4999 1217.43 47.0672 1216.42 48.0771C1215.41 49.0869 1214.85 50.4565 1214.85 51.8845V105.731C1214.85 107.159 1215.41 108.528 1216.42 109.538C1217.43 110.548 1218.8 111.115 1220.23 111.115H1231V105.731H1220.23V68.0383H1279.46V51.8845C1279.46 50.4565 1278.89 49.0869 1277.88 48.0771C1276.87 47.0672 1275.5 46.4999 1274.08 46.4999ZM1220.23 62.6537V51.8845H1274.08V62.6537H1220.23Z" fill="white"/>
<path d="M1255.23 86.8848V103.039L1268.69 94.9617L1255.23 86.8848Z" fill="white"/>
</svg>
