<svg width="1367" height="171" viewBox="0 0 1367 171" fill="none" xmlns="http://www.w3.org/2000/svg">
<path d="M0 15C0 6.71573 6.71573 0 15 0H37V163H15C6.71573 163 0 156.284 0 148V15Z" fill="#424242"/>
<rect width="1097" height="163" transform="translate(37)" fill="#F0F0F0"/>
<path d="M101.906 53.9219L94.3945 51.2383V48.0859L104.602 52.375V54.6367L101.906 53.9219ZM94.3945 56.1719L101.918 53.4297L104.602 52.7852V55.0352L94.3945 59.3242V56.1719ZM125.52 54.918H121.172V52.1758H125.52C126.191 52.1758 126.738 52.0664 127.16 51.8477C127.582 51.6211 127.891 51.3086 128.086 50.9102C128.281 50.5117 128.379 50.0625 128.379 49.5625C128.379 49.0547 128.281 48.582 128.086 48.1445C127.891 47.707 127.582 47.3555 127.16 47.0898C126.738 46.8242 126.191 46.6914 125.52 46.6914H122.391V61H118.875V43.9375H125.52C126.855 43.9375 128 44.1797 128.953 44.6641C129.914 45.1406 130.648 45.8008 131.156 46.6445C131.664 47.4883 131.918 48.4531 131.918 49.5391C131.918 50.6406 131.664 51.5938 131.156 52.3984C130.648 53.2031 129.914 53.8242 128.953 54.2617C128 54.6992 126.855 54.918 125.52 54.918ZM139.805 61.2344C138.82 61.2344 137.938 61.0781 137.156 60.7656C136.375 60.4453 135.711 60.0039 135.164 59.4414C134.625 58.8789 134.211 58.2266 133.922 57.4844C133.633 56.7344 133.488 55.9375 133.488 55.0938V54.625C133.488 53.6641 133.625 52.7852 133.898 51.9883C134.172 51.1914 134.562 50.5 135.07 49.9141C135.586 49.3281 136.211 48.8789 136.945 48.5664C137.68 48.2461 138.508 48.0859 139.43 48.0859C140.328 48.0859 141.125 48.2344 141.82 48.5312C142.516 48.8281 143.098 49.25 143.566 49.7969C144.043 50.3438 144.402 51 144.645 51.7656C144.887 52.5234 145.008 53.3672 145.008 54.2969V55.7031H134.93V53.4531H141.691V53.1953C141.691 52.7266 141.605 52.3086 141.434 51.9414C141.27 51.5664 141.02 51.2695 140.684 51.0508C140.348 50.832 139.918 50.7227 139.395 50.7227C138.949 50.7227 138.566 50.8203 138.246 51.0156C137.926 51.2109 137.664 51.4844 137.461 51.8359C137.266 52.1875 137.117 52.6016 137.016 53.0781C136.922 53.5469 136.875 54.0625 136.875 54.625V55.0938C136.875 55.6016 136.945 56.0703 137.086 56.5C137.234 56.9297 137.441 57.3008 137.707 57.6133C137.98 57.9258 138.309 58.168 138.691 58.3398C139.082 58.5117 139.523 58.5977 140.016 58.5977C140.625 58.5977 141.191 58.4805 141.715 58.2461C142.246 58.0039 142.703 57.6406 143.086 57.1562L144.727 58.9375C144.461 59.3203 144.098 59.6875 143.637 60.0391C143.184 60.3906 142.637 60.6797 141.996 60.9062C141.355 61.125 140.625 61.2344 139.805 61.2344ZM153.773 58.1406V52.4922C153.773 52.0859 153.707 51.7383 153.574 51.4492C153.441 51.1523 153.234 50.9219 152.953 50.7578C152.68 50.5938 152.324 50.5117 151.887 50.5117C151.512 50.5117 151.188 50.5781 150.914 50.7109C150.641 50.8359 150.43 51.0195 150.281 51.2617C150.133 51.4961 150.059 51.7734 150.059 52.0938H146.684C146.684 51.5547 146.809 51.043 147.059 50.5586C147.309 50.0742 147.672 49.6484 148.148 49.2812C148.625 48.9062 149.191 48.6133 149.848 48.4023C150.512 48.1914 151.254 48.0859 152.074 48.0859C153.059 48.0859 153.934 48.25 154.699 48.5781C155.465 48.9062 156.066 49.3984 156.504 50.0547C156.949 50.7109 157.172 51.5312 157.172 52.5156V57.9414C157.172 58.6367 157.215 59.207 157.301 59.6523C157.387 60.0898 157.512 60.4727 157.676 60.8008V61H154.266C154.102 60.6562 153.977 60.2266 153.891 59.7109C153.812 59.1875 153.773 58.6641 153.773 58.1406ZM154.219 53.2773L154.242 55.1875H152.355C151.91 55.1875 151.523 55.2383 151.195 55.3398C150.867 55.4414 150.598 55.5859 150.387 55.7734C150.176 55.9531 150.02 56.1641 149.918 56.4062C149.824 56.6484 149.777 56.9141 149.777 57.2031C149.777 57.4922 149.844 57.7539 149.977 57.9883C150.109 58.2148 150.301 58.3945 150.551 58.5273C150.801 58.6523 151.094 58.7148 151.43 58.7148C151.938 58.7148 152.379 58.6133 152.754 58.4102C153.129 58.207 153.418 57.957 153.621 57.6602C153.832 57.3633 153.941 57.082 153.949 56.8164L154.84 58.2461C154.715 58.5664 154.543 58.8984 154.324 59.2422C154.113 59.5859 153.844 59.9102 153.516 60.2148C153.188 60.5117 152.793 60.7578 152.332 60.9531C151.871 61.1406 151.324 61.2344 150.691 61.2344C149.887 61.2344 149.156 61.0742 148.5 60.7539C147.852 60.4258 147.336 59.9766 146.953 59.4062C146.578 58.8281 146.391 58.1719 146.391 57.4375C146.391 56.7734 146.516 56.1836 146.766 55.668C147.016 55.1523 147.383 54.7188 147.867 54.3672C148.359 54.0078 148.973 53.7383 149.707 53.5586C150.441 53.3711 151.293 53.2773 152.262 53.2773H154.219ZM165.012 58.5977C165.426 58.5977 165.793 58.5195 166.113 58.3633C166.434 58.1992 166.684 57.9727 166.863 57.6836C167.051 57.3867 167.148 57.0391 167.156 56.6406H170.332C170.324 57.5312 170.086 58.3242 169.617 59.0195C169.148 59.707 168.52 60.25 167.73 60.6484C166.941 61.0391 166.059 61.2344 165.082 61.2344C164.098 61.2344 163.238 61.0703 162.504 60.7422C161.777 60.4141 161.172 59.9609 160.688 59.3828C160.203 58.7969 159.84 58.1172 159.598 57.3438C159.355 56.5625 159.234 55.7266 159.234 54.8359V54.4961C159.234 53.5977 159.355 52.7617 159.598 51.9883C159.84 51.207 160.203 50.5273 160.688 49.9492C161.172 49.3633 161.777 48.9062 162.504 48.5781C163.23 48.25 164.082 48.0859 165.059 48.0859C166.098 48.0859 167.008 48.2852 167.789 48.6836C168.578 49.082 169.195 49.6523 169.641 50.3945C170.094 51.1289 170.324 52 170.332 53.0078H167.156C167.148 52.5859 167.059 52.2031 166.887 51.8594C166.723 51.5156 166.48 51.2422 166.16 51.0391C165.848 50.8281 165.461 50.7227 165 50.7227C164.508 50.7227 164.105 50.8281 163.793 51.0391C163.48 51.2422 163.238 51.5234 163.066 51.8828C162.895 52.2344 162.773 52.6367 162.703 53.0898C162.641 53.5352 162.609 54.0039 162.609 54.4961V54.8359C162.609 55.3281 162.641 55.8008 162.703 56.2539C162.766 56.707 162.883 57.1094 163.055 57.4609C163.234 57.8125 163.48 58.0898 163.793 58.293C164.105 58.4961 164.512 58.5977 165.012 58.5977ZM178.125 61.2344C177.141 61.2344 176.258 61.0781 175.477 60.7656C174.695 60.4453 174.031 60.0039 173.484 59.4414C172.945 58.8789 172.531 58.2266 172.242 57.4844C171.953 56.7344 171.809 55.9375 171.809 55.0938V54.625C171.809 53.6641 171.945 52.7852 172.219 51.9883C172.492 51.1914 172.883 50.5 173.391 49.9141C173.906 49.3281 174.531 48.8789 175.266 48.5664C176 48.2461 176.828 48.0859 177.75 48.0859C178.648 48.0859 179.445 48.2344 180.141 48.5312C180.836 48.8281 181.418 49.25 181.887 49.7969C182.363 50.3438 182.723 51 182.965 51.7656C183.207 52.5234 183.328 53.3672 183.328 54.2969V55.7031H173.25V53.4531H180.012V53.1953C180.012 52.7266 179.926 52.3086 179.754 51.9414C179.59 51.5664 179.34 51.2695 179.004 51.0508C178.668 50.832 178.238 50.7227 177.715 50.7227C177.27 50.7227 176.887 50.8203 176.566 51.0156C176.246 51.2109 175.984 51.4844 175.781 51.8359C175.586 52.1875 175.438 52.6016 175.336 53.0781C175.242 53.5469 175.195 54.0625 175.195 54.625V55.0938C175.195 55.6016 175.266 56.0703 175.406 56.5C175.555 56.9297 175.762 57.3008 176.027 57.6133C176.301 57.9258 176.629 58.168 177.012 58.3398C177.402 58.5117 177.844 58.5977 178.336 58.5977C178.945 58.5977 179.512 58.4805 180.035 58.2461C180.566 58.0039 181.023 57.6406 181.406 57.1562L183.047 58.9375C182.781 59.3203 182.418 59.6875 181.957 60.0391C181.504 60.3906 180.957 60.6797 180.316 60.9062C179.676 61.125 178.945 61.2344 178.125 61.2344ZM198.082 54.918H193.734V52.1758H198.082C198.754 52.1758 199.301 52.0664 199.723 51.8477C200.145 51.6211 200.453 51.3086 200.648 50.9102C200.844 50.5117 200.941 50.0625 200.941 49.5625C200.941 49.0547 200.844 48.582 200.648 48.1445C200.453 47.707 200.145 47.3555 199.723 47.0898C199.301 46.8242 198.754 46.6914 198.082 46.6914H194.953V61H191.438V43.9375H198.082C199.418 43.9375 200.562 44.1797 201.516 44.6641C202.477 45.1406 203.211 45.8008 203.719 46.6445C204.227 47.4883 204.48 48.4531 204.48 49.5391C204.48 50.6406 204.227 51.5938 203.719 52.3984C203.211 53.2031 202.477 53.8242 201.516 54.2617C200.562 54.6992 199.418 54.918 198.082 54.918ZM214.195 57.9648V48.3203H217.57V61H214.395L214.195 57.9648ZM214.57 55.3633L215.566 55.3398C215.566 56.1836 215.469 56.9688 215.273 57.6953C215.078 58.4141 214.785 59.0391 214.395 59.5703C214.004 60.0938 213.512 60.5039 212.918 60.8008C212.324 61.0898 211.625 61.2344 210.82 61.2344C210.203 61.2344 209.633 61.1484 209.109 60.9766C208.594 60.7969 208.148 60.5195 207.773 60.1445C207.406 59.7617 207.117 59.2734 206.906 58.6797C206.703 58.0781 206.602 57.3555 206.602 56.5117V48.3203H209.977V56.5352C209.977 56.9102 210.02 57.2266 210.105 57.4844C210.199 57.7422 210.328 57.9531 210.492 58.1172C210.656 58.2812 210.848 58.3984 211.066 58.4688C211.293 58.5391 211.543 58.5742 211.816 58.5742C212.512 58.5742 213.059 58.4336 213.457 58.1523C213.863 57.8711 214.148 57.4883 214.312 57.0039C214.484 56.5117 214.57 55.9648 214.57 55.3633ZM223.711 43V61H220.324V43H223.711ZM233.355 57.4961C233.355 57.2539 233.285 57.0352 233.145 56.8398C233.004 56.6445 232.742 56.4648 232.359 56.3008C231.984 56.1289 231.441 55.9727 230.73 55.832C230.09 55.6914 229.492 55.5156 228.938 55.3047C228.391 55.0859 227.914 54.8242 227.508 54.5195C227.109 54.2148 226.797 53.8555 226.57 53.4414C226.344 53.0195 226.23 52.5391 226.23 52C226.23 51.4688 226.344 50.9688 226.57 50.5C226.805 50.0312 227.137 49.6172 227.566 49.2578C228.004 48.8906 228.535 48.6055 229.16 48.4023C229.793 48.1914 230.504 48.0859 231.293 48.0859C232.395 48.0859 233.34 48.2617 234.129 48.6133C234.926 48.9648 235.535 49.4492 235.957 50.0664C236.387 50.6758 236.602 51.3711 236.602 52.1523H233.227C233.227 51.8242 233.156 51.5312 233.016 51.2734C232.883 51.0078 232.672 50.8008 232.383 50.6523C232.102 50.4961 231.734 50.418 231.281 50.418C230.906 50.418 230.582 50.4844 230.309 50.6172C230.035 50.7422 229.824 50.9141 229.676 51.1328C229.535 51.3438 229.465 51.5781 229.465 51.8359C229.465 52.0312 229.504 52.207 229.582 52.3633C229.668 52.5117 229.805 52.6484 229.992 52.7734C230.18 52.8984 230.422 53.0156 230.719 53.125C231.023 53.2266 231.398 53.3203 231.844 53.4062C232.758 53.5938 233.574 53.8398 234.293 54.1445C235.012 54.4414 235.582 54.8477 236.004 55.3633C236.426 55.8711 236.637 56.5391 236.637 57.3672C236.637 57.9297 236.512 58.4453 236.262 58.9141C236.012 59.3828 235.652 59.793 235.184 60.1445C234.715 60.4883 234.152 60.7578 233.496 60.9531C232.848 61.1406 232.117 61.2344 231.305 61.2344C230.125 61.2344 229.125 61.0234 228.305 60.6016C227.492 60.1797 226.875 59.6445 226.453 58.9961C226.039 58.3398 225.832 57.668 225.832 56.9805H229.031C229.047 57.4414 229.164 57.8125 229.383 58.0938C229.609 58.375 229.895 58.5781 230.238 58.7031C230.59 58.8281 230.969 58.8906 231.375 58.8906C231.812 58.8906 232.176 58.832 232.465 58.7148C232.754 58.5898 232.973 58.4258 233.121 58.2227C233.277 58.0117 233.355 57.7695 233.355 57.4961ZM244.664 61.2344C243.68 61.2344 242.797 61.0781 242.016 60.7656C241.234 60.4453 240.57 60.0039 240.023 59.4414C239.484 58.8789 239.07 58.2266 238.781 57.4844C238.492 56.7344 238.348 55.9375 238.348 55.0938V54.625C238.348 53.6641 238.484 52.7852 238.758 51.9883C239.031 51.1914 239.422 50.5 239.93 49.9141C240.445 49.3281 241.07 48.8789 241.805 48.5664C242.539 48.2461 243.367 48.0859 244.289 48.0859C245.188 48.0859 245.984 48.2344 246.68 48.5312C247.375 48.8281 247.957 49.25 248.426 49.7969C248.902 50.3438 249.262 51 249.504 51.7656C249.746 52.5234 249.867 53.3672 249.867 54.2969V55.7031H239.789V53.4531H246.551V53.1953C246.551 52.7266 246.465 52.3086 246.293 51.9414C246.129 51.5664 245.879 51.2695 245.543 51.0508C245.207 50.832 244.777 50.7227 244.254 50.7227C243.809 50.7227 243.426 50.8203 243.105 51.0156C242.785 51.2109 242.523 51.4844 242.32 51.8359C242.125 52.1875 241.977 52.6016 241.875 53.0781C241.781 53.5469 241.734 54.0625 241.734 54.625V55.0938C241.734 55.6016 241.805 56.0703 241.945 56.5C242.094 56.9297 242.301 57.3008 242.566 57.6133C242.84 57.9258 243.168 58.168 243.551 58.3398C243.941 58.5117 244.383 58.5977 244.875 58.5977C245.484 58.5977 246.051 58.4805 246.574 58.2461C247.105 58.0039 247.562 57.6406 247.945 57.1562L249.586 58.9375C249.32 59.3203 248.957 59.6875 248.496 60.0391C248.043 60.3906 247.496 60.6797 246.855 60.9062C246.215 61.125 245.484 61.2344 244.664 61.2344Z" fill="#888888"/>
<path d="M109.219 107.422H100.734V101.07H109.219C110.375 101.07 111.312 100.875 112.031 100.484C112.75 100.094 113.273 99.5547 113.602 98.8672C113.945 98.1641 114.117 97.375 114.117 96.5C114.117 95.5625 113.945 94.6953 113.602 93.8984C113.273 93.1016 112.75 92.4609 112.031 91.9766C111.312 91.4766 110.375 91.2266 109.219 91.2266H103.828V119H95.6016V84.875H109.219C111.953 84.875 114.305 85.375 116.273 86.375C118.258 87.375 119.781 88.75 120.844 90.5C121.906 92.2344 122.438 94.2188 122.438 96.4531C122.438 98.6562 121.906 100.578 120.844 102.219C119.781 103.859 118.258 105.141 116.273 106.062C114.305 106.969 111.953 107.422 109.219 107.422ZM134.461 99.9219V119H126.562V93.6406H133.945L134.461 99.9219ZM141.961 93.4531L141.82 100.789C141.508 100.758 141.086 100.719 140.555 100.672C140.023 100.625 139.578 100.602 139.219 100.602C138.297 100.602 137.5 100.711 136.828 100.93C136.172 101.133 135.625 101.445 135.188 101.867C134.766 102.273 134.453 102.789 134.25 103.414C134.062 104.039 133.977 104.766 133.992 105.594L132.562 104.656C132.562 102.953 132.727 101.406 133.055 100.016C133.398 98.6094 133.883 97.3984 134.508 96.3828C135.133 95.3516 135.891 94.5625 136.781 94.0156C137.672 93.4531 138.672 93.1719 139.781 93.1719C140.172 93.1719 140.555 93.1953 140.93 93.2422C141.32 93.2891 141.664 93.3594 141.961 93.4531ZM142.852 106.578V106.086C142.852 104.227 143.117 102.516 143.648 100.953C144.18 99.375 144.961 98.0078 145.992 96.8516C147.023 95.6953 148.297 94.7969 149.812 94.1562C151.328 93.5 153.078 93.1719 155.062 93.1719C157.062 93.1719 158.82 93.5 160.336 94.1562C161.867 94.7969 163.148 95.6953 164.18 96.8516C165.211 98.0078 165.992 99.375 166.523 100.953C167.055 102.516 167.32 104.227 167.32 106.086V106.578C167.32 108.422 167.055 110.133 166.523 111.711C165.992 113.273 165.211 114.641 164.18 115.812C163.148 116.969 161.875 117.867 160.359 118.508C158.844 119.148 157.094 119.469 155.109 119.469C153.125 119.469 151.367 119.148 149.836 118.508C148.305 117.867 147.023 116.969 145.992 115.812C144.961 114.641 144.18 113.273 143.648 111.711C143.117 110.133 142.852 108.422 142.852 106.578ZM150.75 106.086V106.578C150.75 107.531 150.82 108.422 150.961 109.25C151.102 110.078 151.336 110.805 151.664 111.43C151.992 112.039 152.438 112.516 153 112.859C153.562 113.203 154.266 113.375 155.109 113.375C155.938 113.375 156.625 113.203 157.172 112.859C157.734 112.516 158.18 112.039 158.508 111.43C158.836 110.805 159.07 110.078 159.211 109.25C159.352 108.422 159.422 107.531 159.422 106.578V106.086C159.422 105.164 159.352 104.297 159.211 103.484C159.07 102.656 158.836 101.93 158.508 101.305C158.18 100.664 157.734 100.164 157.172 99.8047C156.609 99.4453 155.906 99.2656 155.062 99.2656C154.234 99.2656 153.539 99.4453 152.977 99.8047C152.43 100.164 151.992 100.664 151.664 101.305C151.336 101.93 151.102 102.656 150.961 103.484C150.82 104.297 150.75 105.164 150.75 106.086ZM184.195 93.6406V99.125H168.914V93.6406H184.195ZM172.125 87.3359H180.023V110.727C180.023 111.398 180.102 111.922 180.258 112.297C180.414 112.656 180.68 112.914 181.055 113.07C181.445 113.211 181.961 113.281 182.602 113.281C183.055 113.281 183.43 113.273 183.727 113.258C184.023 113.227 184.305 113.188 184.57 113.141V118.789C183.898 119.008 183.195 119.172 182.461 119.281C181.727 119.406 180.945 119.469 180.117 119.469C178.43 119.469 176.984 119.203 175.781 118.672C174.594 118.141 173.688 117.305 173.062 116.164C172.438 115.023 172.125 113.539 172.125 111.711V87.3359ZM185.648 106.578V106.086C185.648 104.227 185.914 102.516 186.445 100.953C186.977 99.375 187.758 98.0078 188.789 96.8516C189.82 95.6953 191.094 94.7969 192.609 94.1562C194.125 93.5 195.875 93.1719 197.859 93.1719C199.859 93.1719 201.617 93.5 203.133 94.1562C204.664 94.7969 205.945 95.6953 206.977 96.8516C208.008 98.0078 208.789 99.375 209.32 100.953C209.852 102.516 210.117 104.227 210.117 106.086V106.578C210.117 108.422 209.852 110.133 209.32 111.711C208.789 113.273 208.008 114.641 206.977 115.812C205.945 116.969 204.672 117.867 203.156 118.508C201.641 119.148 199.891 119.469 197.906 119.469C195.922 119.469 194.164 119.148 192.633 118.508C191.102 117.867 189.82 116.969 188.789 115.812C187.758 114.641 186.977 113.273 186.445 111.711C185.914 110.133 185.648 108.422 185.648 106.578ZM193.547 106.086V106.578C193.547 107.531 193.617 108.422 193.758 109.25C193.898 110.078 194.133 110.805 194.461 111.43C194.789 112.039 195.234 112.516 195.797 112.859C196.359 113.203 197.062 113.375 197.906 113.375C198.734 113.375 199.422 113.203 199.969 112.859C200.531 112.516 200.977 112.039 201.305 111.43C201.633 110.805 201.867 110.078 202.008 109.25C202.148 108.422 202.219 107.531 202.219 106.578V106.086C202.219 105.164 202.148 104.297 202.008 103.484C201.867 102.656 201.633 101.93 201.305 101.305C200.977 100.664 200.531 100.164 199.969 99.8047C199.406 99.4453 198.703 99.2656 197.859 99.2656C197.031 99.2656 196.336 99.4453 195.773 99.8047C195.227 100.164 194.789 100.664 194.461 101.305C194.133 101.93 193.898 102.656 193.758 103.484C193.617 104.297 193.547 105.164 193.547 106.086ZM226.992 93.6406V99.125H211.711V93.6406H226.992ZM214.922 87.3359H222.82V110.727C222.82 111.398 222.898 111.922 223.055 112.297C223.211 112.656 223.477 112.914 223.852 113.07C224.242 113.211 224.758 113.281 225.398 113.281C225.852 113.281 226.227 113.273 226.523 113.258C226.82 113.227 227.102 113.188 227.367 113.141V118.789C226.695 119.008 225.992 119.172 225.258 119.281C224.523 119.406 223.742 119.469 222.914 119.469C221.227 119.469 219.781 119.203 218.578 118.672C217.391 118.141 216.484 117.305 215.859 116.164C215.234 115.023 214.922 113.539 214.922 111.711V87.3359ZM237.914 116.023L244.477 93.6406H252.961L242.766 122.773C242.547 123.414 242.258 124.102 241.898 124.836C241.539 125.586 241.047 126.297 240.422 126.969C239.797 127.641 238.992 128.188 238.008 128.609C237.039 129.031 235.836 129.242 234.398 129.242C233.633 129.242 233.07 129.203 232.711 129.125C232.367 129.062 231.836 128.945 231.117 128.773V123.125C231.32 123.125 231.492 123.125 231.633 123.125C231.789 123.125 231.961 123.125 232.148 123.125C232.992 123.125 233.664 123.039 234.164 122.867C234.68 122.695 235.07 122.445 235.336 122.117C235.617 121.789 235.836 121.391 235.992 120.922L237.914 116.023ZM236.25 93.6406L241.242 111.383L242.109 119.75H236.812L227.789 93.6406H236.25ZM262.992 98.5156V128.75H255.094V93.6406H262.453L262.992 98.5156ZM278.555 106.016V106.508C278.555 108.352 278.344 110.062 277.922 111.641C277.5 113.219 276.875 114.594 276.047 115.766C275.219 116.938 274.188 117.852 272.953 118.508C271.734 119.148 270.32 119.469 268.711 119.469C267.195 119.469 265.891 119.133 264.797 118.461C263.703 117.789 262.789 116.859 262.055 115.672C261.32 114.484 260.727 113.125 260.273 111.594C259.82 110.062 259.461 108.445 259.195 106.742V106.109C259.461 104.281 259.82 102.586 260.273 101.023C260.727 99.4453 261.32 98.0703 262.055 96.8984C262.789 95.7266 263.695 94.8125 264.773 94.1562C265.867 93.5 267.172 93.1719 268.688 93.1719C270.297 93.1719 271.711 93.4766 272.93 94.0859C274.164 94.6953 275.195 95.5703 276.023 96.7109C276.867 97.8359 277.5 99.1875 277.922 100.766C278.344 102.344 278.555 104.094 278.555 106.016ZM270.656 106.508V106.016C270.656 105.031 270.586 104.133 270.445 103.32C270.305 102.492 270.078 101.773 269.766 101.164C269.469 100.555 269.07 100.086 268.57 99.7578C268.07 99.4297 267.453 99.2656 266.719 99.2656C265.875 99.2656 265.164 99.3984 264.586 99.6641C264.023 99.9141 263.57 100.305 263.227 100.836C262.898 101.352 262.664 102 262.523 102.781C262.398 103.547 262.344 104.445 262.359 105.477V107.398C262.328 108.586 262.445 109.633 262.711 110.539C262.977 111.43 263.438 112.125 264.094 112.625C264.75 113.125 265.641 113.375 266.766 113.375C267.516 113.375 268.141 113.203 268.641 112.859C269.141 112.5 269.539 112.008 269.836 111.383C270.133 110.742 270.344 110.008 270.469 109.18C270.594 108.352 270.656 107.461 270.656 106.508ZM290.414 93.6406V119H282.492V93.6406H290.414ZM282.023 87.1016C282.023 85.9766 282.43 85.0547 283.242 84.3359C284.055 83.6172 285.109 83.2578 286.406 83.2578C287.703 83.2578 288.758 83.6172 289.57 84.3359C290.383 85.0547 290.789 85.9766 290.789 87.1016C290.789 88.2266 290.383 89.1484 289.57 89.8672C288.758 90.5859 287.703 90.9453 286.406 90.9453C285.109 90.9453 284.055 90.5859 283.242 89.8672C282.43 89.1484 282.023 88.2266 282.023 87.1016ZM303.047 99.0547V119H295.148V93.6406H302.555L303.047 99.0547ZM302.109 105.453L300.258 105.5C300.258 103.562 300.492 101.836 300.961 100.32C301.43 98.7891 302.094 97.4922 302.953 96.4297C303.812 95.3672 304.836 94.5625 306.023 94.0156C307.227 93.4531 308.562 93.1719 310.031 93.1719C311.203 93.1719 312.273 93.3438 313.242 93.6875C314.227 94.0312 315.07 94.5859 315.773 95.3516C316.492 96.1172 317.039 97.1328 317.414 98.3984C317.805 99.6484 318 101.195 318 103.039V119H310.055V103.016C310.055 102 309.914 101.227 309.633 100.695C309.352 100.148 308.945 99.7734 308.414 99.5703C307.883 99.3672 307.234 99.2656 306.469 99.2656C305.656 99.2656 304.969 99.4219 304.406 99.7344C303.844 100.047 303.391 100.484 303.047 101.047C302.719 101.594 302.477 102.242 302.32 102.992C302.18 103.742 302.109 104.562 302.109 105.453ZM338.32 93.6406H345.492V118.016C345.492 120.359 344.953 122.344 343.875 123.969C342.797 125.609 341.289 126.852 339.352 127.695C337.43 128.555 335.18 128.984 332.602 128.984C331.461 128.984 330.297 128.836 329.109 128.539C327.922 128.258 326.812 127.836 325.781 127.273C324.75 126.711 323.883 126.016 323.18 125.188L326.484 120.547C327.125 121.266 327.93 121.875 328.898 122.375C329.867 122.891 331.008 123.148 332.32 123.148C333.461 123.148 334.414 122.945 335.18 122.539C335.961 122.133 336.555 121.539 336.961 120.758C337.367 119.992 337.57 119.062 337.57 117.969V99.6406L338.32 93.6406ZM321.469 106.625V106.133C321.469 104.211 321.703 102.461 322.172 100.883C322.656 99.2891 323.344 97.9219 324.234 96.7812C325.141 95.625 326.234 94.7344 327.516 94.1094C328.797 93.4844 330.242 93.1719 331.852 93.1719C333.586 93.1719 335.008 93.5078 336.117 94.1797C337.242 94.8359 338.141 95.7578 338.812 96.9453C339.5 98.1328 340.031 99.5234 340.406 101.117C340.797 102.695 341.125 104.398 341.391 106.227V106.812C341.125 108.531 340.758 110.156 340.289 111.688C339.836 113.203 339.242 114.547 338.508 115.719C337.773 116.891 336.852 117.812 335.742 118.484C334.648 119.141 333.336 119.469 331.805 119.469C330.211 119.469 328.773 119.148 327.492 118.508C326.227 117.867 325.141 116.969 324.234 115.812C323.344 114.656 322.656 113.297 322.172 111.734C321.703 110.172 321.469 108.469 321.469 106.625ZM329.367 106.133V106.625C329.367 107.578 329.453 108.461 329.625 109.273C329.812 110.086 330.094 110.805 330.469 111.43C330.844 112.039 331.305 112.516 331.852 112.859C332.414 113.203 333.07 113.375 333.82 113.375C334.961 113.375 335.883 113.133 336.586 112.648C337.289 112.164 337.797 111.477 338.109 110.586C338.422 109.695 338.555 108.648 338.508 107.445V105.594C338.539 104.562 338.469 103.656 338.297 102.875C338.125 102.078 337.852 101.414 337.477 100.883C337.117 100.352 336.633 99.9531 336.023 99.6875C335.43 99.4062 334.711 99.2656 333.867 99.2656C333.133 99.2656 332.484 99.4375 331.922 99.7812C331.359 100.125 330.891 100.609 330.516 101.234C330.141 101.844 329.852 102.57 329.648 103.414C329.461 104.242 329.367 105.148 329.367 106.133Z" fill="black"/>
<g filter="url(#filter0_d_401_273)">
<path d="M1134 0H1348C1356.28 0 1363 6.71573 1363 15V148C1363 156.284 1356.28 163 1348 163H1134V0Z" fill="#00B0FF"/>
<path fill-rule="evenodd" clip-rule="evenodd" d="M1202.75 46.5018C1202.75 45.3973 1203.65 44.5018 1204.75 44.5018H1292.25C1293.35 44.5018 1294.25 45.3973 1294.25 46.5018V116.498C1294.25 117.603 1293.35 118.498 1292.25 118.498H1204.75C1203.65 118.498 1202.75 117.603 1202.75 116.498V46.5018ZM1206.75 48.5018V52.9963H1290.25V48.5018H1206.75ZM1290.25 56.9963H1235.19V114.498H1290.25V56.9963ZM1231.19 114.498V56.9963H1206.75V114.498H1231.19Z" fill="white"/>
<path fill-rule="evenodd" clip-rule="evenodd" d="M1209.72 62.3022C1209.72 61.1976 1210.62 60.3022 1211.72 60.3022H1225.72C1226.83 60.3022 1227.72 61.1976 1227.72 62.3022V81.6974C1227.72 82.802 1226.83 83.6974 1225.72 83.6974H1211.72C1210.62 83.6974 1209.72 82.802 1209.72 81.6974V62.3022ZM1213.72 64.3022V79.6974H1223.72V64.3022H1213.72ZM1239.33 63.1982C1239.33 62.0936 1240.22 61.1982 1241.33 61.1982H1284.25C1285.36 61.1982 1286.25 62.0936 1286.25 63.1982V109.407C1286.25 110.511 1285.36 111.407 1284.25 111.407H1241.33C1240.22 111.407 1239.33 110.511 1239.33 109.407V63.1982ZM1243.33 65.1982V107.407H1282.25V65.1982H1243.33ZM1209.56 93.4381C1209.56 92.3336 1210.46 91.4381 1211.56 91.4381H1220.48C1221.59 91.4381 1222.48 92.3336 1222.48 93.4381C1222.48 94.5427 1221.59 95.4381 1220.48 95.4381H1211.56C1210.46 95.4381 1209.56 94.5427 1209.56 93.4381ZM1209.56 100.438C1209.56 99.3335 1210.46 98.4381 1211.56 98.4381H1226.1C1227.21 98.4381 1228.1 99.3335 1228.1 100.438C1228.1 101.543 1227.21 102.438 1226.1 102.438H1211.56C1210.46 102.438 1209.56 101.543 1209.56 100.438ZM1209.56 107.438C1209.56 106.334 1210.46 105.438 1211.56 105.438H1220.48C1221.59 105.438 1222.48 106.334 1222.48 107.438C1222.48 108.543 1221.59 109.438 1220.48 109.438H1211.56C1210.46 109.438 1209.56 108.543 1209.56 107.438Z" fill="white"/>
</g>
<defs>
<filter id="filter0_d_401_273" x="1130" y="0" width="237" height="171" filterUnits="userSpaceOnUse" color-interpolation-filters="sRGB">
<feFlood flood-opacity="0" result="BackgroundImageFix"/>
<feColorMatrix in="SourceAlpha" type="matrix" values="0 0 0 0 0 0 0 0 0 0 0 0 0 0 0 0 0 0 127 0" result="hardAlpha"/>
<feOffset dy="4"/>
<feGaussianBlur stdDeviation="2"/>
<feComposite in2="hardAlpha" operator="out"/>
<feColorMatrix type="matrix" values="0 0 0 0 0 0 0 0 0 0 0 0 0 0 0 0 0 0 0.25 0"/>
<feBlend mode="normal" in2="BackgroundImageFix" result="effect1_dropShadow_401_273"/>
<feBlend mode="normal" in="SourceGraphic" in2="effect1_dropShadow_401_273" result="shape"/>
</filter>
</defs>
</svg>
